Coordinates
version=1
nRows=8
nColumns=42
inDegrees=yes

Units are S.I. units (second, meters, Newtons, ...)
If the header above contains a line with 'inDegrees', this indicates whether rotational values are in degrees (yes) or radians (no).

endheader
time	pelvis_tilt	pelvis_list	pelvis_rotation	pelvis_tx	pelvis_ty	pelvis_tz	hip_flexion_r	hip_adduction_r	hip_rotation_r	knee_angle_r	knee_adduction_r	knee_angle_r_beta	ankle_angle_r	subtalar_angle_r	mtp_angle_r	hip_flexion_l	hip_adduction_l	hip_rotation_l	knee_angle_l	knee_adduction_l	knee_angle_l_beta	ankle_angle_l	subtalar_angle_l	mtp_angle_l	lumbar_extension	lumbar_bending	lumbar_rotation	arm_flex_r	arm_add_r	arm_rot_r	elbow_flex_r	pro_sup_r	wrist_flex_r	wrist_dev_r	arm_flex_l	arm_add_l	arm_rot_l	elbow_flex_l	pro_sup_l	wrist_flex_l	wrist_dev_l
      0.42000000	      9.04342416	      0.06230289	      0.15689254	     -0.40817352	      0.84253349	     -0.29715324	     -6.82638137	      2.20623320	    -18.21626478	     14.34975209	      0.26589245	      0.25045042	     19.78964570	     13.04015008	     -7.83549420	     12.25599282	     -5.83907622	     -7.05598887	     60.51466882	     -0.94226681	      1.05618022	     10.67503897	    -13.19634813	     -7.83549420	    -23.50089270	     -0.71994971	      2.40601460	      4.26347053	    -14.84666867	     -6.93578509	     35.42660118	     90.00000001	      0.00000000	      0.00000000	     -0.14467866	     -9.26353148	    -22.19627566	     39.01370051	     90.00000001	      0.00000000	      0.00000000
      0.43000000	      9.40154177	      0.65952531	     -0.46195161	     -0.39345672	      0.84392479	     -0.29537280	     -9.25446605	      1.58949161	    -17.50798033	     12.68424245	      0.81029676	      0.22138179	     19.74526477	     12.93798568	     -7.81558708	     12.90163028	     -4.81303481	     -7.94848871	     57.38112979	     -0.89394181	      1.00148964	     10.73882568	    -13.26408511	     -7.81558708	    -23.84002531	     -1.73803993	      3.24271935	      4.38162566	    -15.24540755	     -5.88119270	     36.04641321	     90.00000001	      0.00000000	      0.00000000	     -0.68839325	     -9.13688050	    -24.28962437	     38.26639832	     90.00000001	      0.00000000	      0.00000000
      0.44000000	      9.39292272	      0.97224712	     -1.01078038	     -0.37899316	      0.84420747	     -0.29350479	    -11.08627793	      1.34919728	    -17.18527051	     11.24180245	      1.07084506	      0.19620647	     19.92713518	     13.40442654	     -7.80310749	     13.99319227	     -4.19342899	     -8.66215401	     54.23545302	     -0.68544115	      0.94658723	     10.98934388	    -13.50820778	     -7.80310749	    -23.77331432	     -2.42259826	      4.17641284	      4.50987190	    -15.58788824	     -5.31792174	     36.59978515	     90.00000001	      0.00000000	      0.00000000	     -1.26906994	     -9.18984883	    -25.51738671	     37.33831093	     90.00000001	      0.00000000	      0.00000000
      0.45000000	      9.39254926	      1.25354257	     -1.53788793	     -0.36442426	      0.84402867	     -0.29183924	    -12.88665374	      1.07419142	    -17.01248475	      9.90524601	      1.35253092	      0.17287916	     20.06623182	     13.98419617	     -7.79219889	     14.89805899	     -3.63082377	     -9.60212205	     50.73370087	     -0.53474797	      0.88547012	     11.22765331	    -13.85881180	     -7.79219889	    -23.69140038	     -3.03108568	      5.07274500	      4.64411325	    -16.00873619	     -4.72522475	     37.13746981	     90.00000001	      0.00000000	      0.00000000	     -1.88651015	     -9.20633798	    -26.91142269	     36.53687479	     90.00000001	      0.00000000	      0.00000000
      0.46000000	      8.78525162	      0.84677462	     -1.79371186	     -0.35049389	      0.84230140	     -0.29010227	    -13.51838112	      1.60243545	    -17.74696794	      9.49732772	      1.41875040	      0.16575964	     20.16925619	     13.88534185	     -7.78811861	     16.81296719	     -4.00697990	    -10.39776476	     47.76622093	     -0.38248794	      0.83367783	     11.35216404	    -13.59894803	     -7.78811861	    -23.02195560	     -2.81549903	      5.89350663	      4.95158654	    -16.33185641	     -4.62357702	     37.55789692	     90.00000001	      0.00000000	      0.00000000	     -2.92532622	     -9.37555529	    -27.28644834	     36.23584212	     90.00000001	      0.00000000	      0.00000000
      0.47000000	      9.42811371	      1.61921552	     -2.54615577	     -0.33530113	      0.84238334	     -0.28879387	    -16.30507491	      0.57970990	    -17.32246318	      7.70240148	      1.98600453	      0.13443227	     20.29597945	     14.89031285	     -7.76854956	     16.20158223	     -2.70086794	    -11.73462788	     42.91617006	     -0.31381932	      0.74902847	     11.39071034	    -14.19875266	     -7.76854956	    -23.57290981	     -3.98174997	      6.70255073	      5.11303464	    -16.96592263	     -3.14755568	     38.14578335	     90.00000001	      0.00000000	      0.00000000	     -3.19875799	     -9.13917051	    -30.63407930	     35.23584957	     90.00000001	      0.00000000	      0.00000000
      0.48000000	      9.39892700	      1.55054496	     -2.97351656	     -0.32066464	      0.84086595	     -0.28733680	    -17.89796203	      0.63439901	    -17.65325913	      6.73790806	      2.21089532	      0.11759868	     20.49851913	     15.62637460	     -7.75768638	     16.70675833	     -2.60140005	    -12.84428513	     38.81723394	     -0.06424113	      0.67748854	     11.75440602	    -13.66142154	     -7.75768638	    -23.45360112	     -4.14716536	      7.54796650	      5.36515245	    -17.45060317	     -2.63221427	     38.57495683	     90.00000001	      0.00000000	      0.00000000	     -3.88398649	     -9.19107943	    -32.04142713	     34.54849582	     90.00000001	      0.00000000	      0.00000000
      0.49000000	      9.37954860	      1.54673140	     -3.34706008	     -0.30594721	      0.83902357	     -0.28618741	    -19.39784633	      0.54383291	    -18.24346458	      6.03925311	      2.48841553	      0.10540485	     20.70983622	     16.23318260	     -7.74445145	     17.05144383	     -2.36124564	    -14.06789820	     34.56471317	      0.13580489	      0.60326805	     12.13830738	    -12.57311829	     -7.74445145	    -23.34510752	     -4.33986497	      8.20633803	      5.70411407	    -17.96098312	     -1.93858649	     38.95040631	     90.00000001	      0.00000000	      0.00000000	     -4.61376039	     -9.16323249	    -33.95105515	     34.01531696	     90.00000001	      0.00000000	      0.00000000
